HIERARCHY
ROOT Hips
{
	OFFSET 0.000000 0.000000 0.000000 
	CHANNELS 6 Xposition Yposition Zposition Yrotation Zrotation Xrotation 
	JOINT Lumbar
	{
		OFFSET 0.000000 0.000000 0.000000 
		CHANNELS 3 Zrotation Xrotation Yrotation
		JOINT Neck
		{
			OFFSET 0.000000 0.445665 0.000000 
			CHANNELS 3 Zrotation Xrotation Yrotation
			End Site
			{
				OFFSET 0.000000 0.227535 0.000000 
			}
		}
		JOINT RightShoulder
		{
			OFFSET 0.019635 0.377685 0.194865 
			CHANNELS 3 Zrotation Xrotation Yrotation
			JOINT RightElbow
			{
				OFFSET 0.000000 -0.243375 0.000000 
				CHANNELS 2 Zrotation Yrotation
				JOINT RightWrist
				{
					OFFSET 0.000000 -0.264825 0.000000 
					CHANNELS 2 Zrotation Xrotation
					End Site
					{
						OFFSET 0.006600 -0.176220 0.000990 
					}
				}
			}
		}
		JOINT LeftShoulder
		{
			OFFSET 0.019635 0.377685 -0.194865 
			CHANNELS 3 Zrotation Xrotation Yrotation
			JOINT LeftElbow
			{
				OFFSET 0.000000 -0.243375 0.000000 
				CHANNELS 2 Zrotation Yrotation
				JOINT LeftWrist
				{
					OFFSET 0.000000 -0.264825 0.000000 
					CHANNELS 2 Zrotation Xrotation
					End Site
					{
						OFFSET 0.006600 -0.176220 -0.000990 
					}
				}
			}
		}
	}
	JOINT RightHip
	{
		OFFSET 0.052140 -0.069960 0.075570 
		CHANNELS 3 Zrotation Xrotation Yrotation
		JOINT RightKnee
		{
			OFFSET 0.000000 -0.402270 0.000000 
			CHANNELS 1 Zrotation
			JOINT RightAnkle
			{
				OFFSET 0.000000 -0.404085 0.000000 
				CHANNELS 3 Zrotation Xrotation Yrotation
				End Site
				{
					OFFSET 0.204105 -0.089430 0.008415 
				}
			}
		}
	}
	JOINT LeftHip
	{
		OFFSET 0.052140 -0.069960 -0.075570 
		CHANNELS 3 Zrotation Xrotation Yrotation
		JOINT LeftKnee
		{
			OFFSET 0.000000 -0.402270 0.000000 
			CHANNELS 1 Zrotation
			JOINT LeftAnkle
			{
				OFFSET 0.000000 -0.404085 0.000000 
				CHANNELS 3 Zrotation Xrotation Yrotation
				End Site
				{
					OFFSET 0.204105 -0.089430 -0.008415 
				}
			}
		}
	}
}
MOTION
Frames: 22
Frame Time: 0.02
-1.02503 -0.00269 0.30475 198.53561 -40.92157 -0.34744 49.87522 2.04241 6.27926 2.44164 -0.12863 -0.83079 -23.15927 -5.81065 -22.76978 31.86452 73.83328 -9.05976 -0.03027 -5.87824 47.26105 -9.99411 63.30922 -82.52384 0.41973 1.26247 34.62742 -6.55476 -4.01919 -8.71143 -8.72628 -4.89777 -3.36315 35.81349 2.07523 1.43598 -13.25378 -7.4322 3.83083 2.68507
-1.02824 -0.00251 0.30126 197.66355 -41.04431 -0.30787 49.91553 2.24452 6.36242 2.37766 -0.13129 -0.83079 -22.69012 -6.24857 -22.761 31.6636 74.13605 -8.70695 0.04764 -3.83715 50.29181 -10.38807 62.11809 -82.58152 0.85423 1.37965 34.28872 -6.42593 -4.34865 -7.55305 -8.70817 -4.73068 -3.26804 35.48541 2.11315 1.51953 -12.73301 -7.52792 3.91704 2.74607
-1.03167 -0.00226 0.29755 196.68931 -41.17807 -0.28243 49.97222 2.47888 6.47407 2.32813 -0.1434 -0.83079 -22.09598 -6.84454 -21.82006 31.66925 74.64626 -8.24823 0.09907 -1.14249 53.77704 -10.95996 60.47574 -82.64441 1.28922 1.50587 33.84623 -6.26939 -4.88981 -6.38148 -8.68002 -4.63289 -3.21154 35.12412 2.13432 1.54296 -12.14689 -7.64739 4.02909 2.82387
-1.03501 -0.00205 0.29393 195.76115 -41.30533 -0.25172 50.01738 2.69785 6.5573 2.28118 -0.15579 -0.83079 -21.53839 -7.36964 -21.27155 31.58942 75.0569 -7.84009 0.16092 1.70474 57.00382 -11.7354 58.8795 -82.72459 1.69184 1.60652 33.45799 -6.12633 -5.20667 -5.23559 -8.65539 -4.68149 -3.23829 34.77065 2.16367 1.59594 -11.58103 -7.75751 4.1265 2.89213
-1.03833 -0.00183 0.29034 194.82517 -41.43682 -0.21552 50.07846 2.92115 6.71635 2.19193 -0.14809 -0.83079 -21.05815 -7.90191 -20.82517 31.48259 75.49795 -7.40449 0.23298 2.69719 60.48716 -11.41367 57.92902 -82.7263 2.2284 1.78778 33.04098 -5.97983 -6.04762 -4.02562 -8.63199 -4.00374 -2.85341 34.44508 2.18913 1.65195 -11.05548 -7.85978 4.21278 2.95582
-1.04172 -0.0016 0.28664 193.88746 -41.56307 -0.19474 50.11037 3.14209 6.71629 2.19809 -0.18486 -0.83079 -20.38634 -8.45059 -19.95739 31.47342 75.92158 -7.01102 0.27512 7.65449 63.50627 -13.28777 55.55385 -82.88487 2.48783 1.81592 32.65958 -5.83315 -5.86942 -2.94117 -8.60592 -4.822 -3.31618 34.05479 2.22016 1.67557 -10.42949 -7.98646 4.3579 3.04904
-1.04529 -0.00137 0.28264 192.93874 -41.67014 -0.2079 50.06336 3.35515 6.31896 2.43324 -0.34168 -0.83079 -19.2679 -9.02869 -18.14015 31.74179 76.24909 -6.71487 0.2549 23.84994 65.42294 -22.36961 49.13649 -83.55334 1.96965 1.3048 32.39219 -5.70081 -2.62886 -2.17564 -8.56272 -10.05319 -6.27942 33.49246 2.26001 1.7137 -9.55335 -8.15167 4.39446 3.07609
-1.04892 -0.00113 0.27854 191.99969 -41.77226 -0.23691 49.98595 3.56346 5.75117 2.7693 -0.54347 -0.83079 -17.95573 -9.61201 -15.93982 32.09279 76.55007 -6.47398 0.20307 43.92134 66.80271 -33.46983 41.3441 -84.36729 1.17558 0.65676 32.16564 -5.5678 1.60883 -1.53945 -8.52029 -16.73405 -10.0639 32.86755 2.30822 1.70577 -8.57758 -8.34384 4.53078 3.15497
-1.0525 -0.00089 0.27448 191.07611 -41.8782 -0.26226 49.91864 3.76946 5.22757 3.08024 -0.7246 -0.83079 -16.6968 -10.17704 -13.92517 32.36357 76.86056 -6.24045 0.15576 61.93283 68.2339 -42.82137 34.32311 -85.06127 0.51513 0.15114 31.92661 -5.42993 5.26061 -0.86126 -8.48512 -22.5532 -13.36055 32.27158 2.35955 1.65757 -7.6386 -8.54014 4.80514 3.30944
-1.05618 -0.0007 0.2704 190.06023 -41.97765 -0.2738 49.86626 3.99522 4.84287 3.30625 -0.90548 -0.83079 -15.56949 -10.8161 -11.81941 32.81007 77.19008 -5.87019 0.14723 81.25829 70.4869 -55.54064 26.6608 -85.97449 -0.18276 -0.67707 31.65873 -5.31295 9.46282 -0.11247 -8.41519 -29.22351 -17.13882 31.66908 2.38063 1.85858 -6.72815 -8.67252 4.33894 3.0627
-1.05966 -0.00039 0.26637 189.24621 -42.08954 -0.31688 49.77698 4.17856 4.13135 3.73024 -1.09931 -0.83079 -14.13714 -11.29868 -9.83618 32.92214 77.46978 -5.79385 0.05316 98.71986 70.90385 -61.90875 20.02231 -86.47591 -0.86485 -0.88563 31.46146 -5.15258 12.76144 0.45882 -8.42081 -34.47415 -20.11297 31.0698 2.4675 1.53935 -5.74173 -8.93859 5.39753 3.64267
-1.06254 0.00025 0.26245 188.93594 -42.23505 -0.4501 49.57917 4.24342 2.53058 4.69917 -1.30163 -0.83079 -11.79514 -11.35907 -8.19128 31.96145 77.62776 -6.56392 -0.29068 110.41739 66.30082 -48.60873 16.47607 -85.71643 -1.46128 0.82394 31.45459 -4.87369 13.29356 0.56922 -8.61006 -35.36335 -20.62594 30.46017 2.72865 -0.28306 -4.51613 -9.61659 10.9992 6.67536
-1.06522 0.001 0.25859 188.83778 -42.39353 -0.61315 49.34765 4.26623 0.61277 5.85931 -1.51813 -0.83079 -9.17457 -11.2591 -6.70451 30.68282 77.73433 -7.61989 -0.71589 120.0411 59.88248 -29.12752 14.02316 -84.55454 -2.02541 3.13291 31.51703 -4.55134 12.88854 0.50582 -8.87944 -34.78865 -20.30818 29.8624 3.05651 -2.61295 -3.22768 -10.42013 18.0682 10.50532
-1.06799 0.00171 0.25473 188.67769 -42.54729 -0.75793 49.14095 4.30957 -1.14244 6.91703 -1.73916 -0.83079 -6.75788 -11.22409 -5.21254 29.63528 77.8564 -8.51325 -1.08919 130.39268 54.34499 -13.5797 11.11883 -83.63392 -2.59035 5.04912 31.54452 -4.24798 12.93106 0.52365 -9.12914 -34.94178 -20.39712 29.28226 3.35779 -4.65871 -2.00383 -11.13211 24.2273 13.84891
-1.07076 0.00241 0.25074 188.37565 -42.69601 -0.9232 48.89381 4.34608 -2.98518 8.04458 -1.91669 -0.83079 -4.00951 -11.22187 -3.42805 28.23155 78.00825 -9.54451 -1.52476 141.78232 48.54893 6.54353 7.97466 -82.46935 -3.23224 7.45423 31.58733 -3.94677 12.91501 0.5278 -9.31046 -34.88535 -20.39309 28.60345 3.64481 -6.93058 -0.62509 -11.98556 31.40355 17.71296
-1.07349 0.00314 0.24704 188.41538 -42.85826 -1.05263 48.72239 4.38777 -4.7144 9.06985 -2.18604 -0.83079 -1.88659 -11.11434 -2.29184 27.4851 78.0895 -10.35818 -1.85187 150.47126 42.87264 18.75737 5.60724 -81.71856 -3.69159 9.0033 31.61497 -3.63206 12.78774 0.5205 -9.65039 -34.89399 -20.37285 28.13288 3.9757 -8.85318 0.44564 -12.58028 36.8241 20.68797
-1.07623 0.00396 0.24409 189.38276 -43.05624 -1.07582 48.77676 4.44646 -6.08893 9.77325 -2.71852 -0.83079 -1.57503 -10.7454 -2.94152 28.69911 77.95874 -10.47891 -1.83854 152.14964 37.93046 6.57468 5.12982 -82.17682 -3.75438 7.87943 31.57748 -3.27977 12.55653 0.52772 -10.43389 -35.47414 -20.52274 28.24364 4.42462 -9.66907 0.64102 -12.37208 36.89675 20.95602
-1.07894 0.00481 0.24145 190.67974 -43.2675 -1.06169 48.90738 4.51325 -7.3311 10.36526 -3.34006 -0.83079 -1.89994 -10.27808 -4.23323 30.57195 77.7636 -10.37403 -1.7165 151.17432 33.18445 -13.5527 5.40138 -83.0673 -3.61951 5.89938 31.52383 -2.91756 12.24455 0.52939 -11.37 -36.15637 -20.67857 28.56268 4.91267 -10.11747 0.5254 -11.90852 35.17459 20.31104
-1.08165 0.00563 0.23869 191.80273 -43.4712 -1.06473 48.99734 4.58131 -8.60857 11.00293 -3.91229 -0.83079 -1.92461 -9.8619 -5.21109 32.09905 77.61844 -10.38752 -1.6585 151.43264 28.37457 -29.37803 5.32826 -83.78432 -3.50219 4.42492 31.48086 -2.56686 11.98301 0.53193 -12.21914 -36.76289 -20.82008 28.78002 5.37438 -10.74776 0.55797 -11.60123 34.36983 20.12265
-1.08443 0.00651 0.23583 193.03665 -43.68023 -1.06849 49.11025 4.62696 -10.00018 11.66826 -4.52318 -0.83079 -1.98818 -9.41194 -6.28952 33.81298 77.38707 -10.3468 -1.54367 151.50033 23.38313 -48.00495 5.309 -84.40402 -3.66889 2.50005 31.42415 -2.18453 11.63581 0.53536 -13.14358 -37.44441 -20.98268 29.02544 5.87543 -11.33955 0.56427 -11.1338 33.19932 19.79106
-1.08705 0.00727 0.23327 194.11335 -43.88312 -1.0608 49.19545 4.7218 -11.12089 12.24705 -5.07348 -0.83079 -2.12261 -9.0124 -7.30629 35.29553 77.31679 -10.35834 -1.51769 151.36647 18.85418 -62.6426 5.34329 -85.31726 -3.2228 1.27642 31.39394 -1.86702 11.45443 0.53782 -13.9487 -38.01115 -21.11288 29.26426 6.30184 -11.90938 0.55008 -10.93105 32.32959 19.52445
-1.08925 0.00769 0.23144 194.68919 -44.04816 -1.03627 49.17201 4.95015 -11.50201 12.61201 -5.44337 -0.83079 -2.32547 -8.76549 -8.01948 36.00469 77.73975 -10.59789 -1.78575 151.28259 15.44465 -65.42718 5.32288 -87.08514 -0.9096 2.42445 31.41728 -1.72494 11.80117 0.54054 -14.36525 -38.25436 -21.15966 29.41122 6.52186 -12.57795 0.55939 -11.57816 32.85817 19.70887
